<svg width="32" height="22" viewBox="0 0 32 22" fill="none" xmlns="http://www.w3.org/2000/svg">
<path d="M29.6516 0.175781H2.34844C1.0535 0.175781 0 1.22928 0 2.52422V19.4748C0 20.7698 1.0535 21.8233 2.34844 21.8233H29.6516C30.9466 21.8233 32 20.7698 32 19.4748V2.52422C32.0001 1.22928 30.9466 0.175781 29.6516 0.175781ZM9.84352 14.2707H13.0157C13.3963 14.2707 13.7048 14.5792 13.7048 14.9598C13.7048 15.3404 13.3963 15.6489 13.0157 15.6489H9.84352C9.46289 15.6489 9.15446 15.3404 9.15446 14.9598C9.15446 14.5792 9.46296 14.2707 9.84352 14.2707ZM2.98001 7.35905C2.98001 6.97842 3.28851 6.66998 3.66907 6.66998H7.79708C8.1777 6.66998 8.48614 6.97848 8.48614 7.35905V10.3436C8.48614 10.7242 8.17764 11.0327 7.79708 11.0327H3.66907C3.28844 11.0327 2.98001 10.7242 2.98001 10.3436V7.35905ZM3.66907 14.2707H6.84126C7.22189 14.2707 7.53033 14.5792 7.53033 14.9598C7.53033 15.3404 7.22183 15.6489 6.84126 15.6489H3.66907C3.28844 15.6489 2.98001 15.3404 2.98001 14.9598C2.98001 14.5792 3.28857 14.2707 3.66907 14.2707ZM14.9938 18.7131H3.66907C3.28844 18.7131 2.98001 18.4046 2.98001 18.024C2.98001 17.6434 3.28851 17.3349 3.66907 17.3349H14.9938C15.3744 17.3349 15.6828 17.6434 15.6828 18.024C15.6828 18.4046 15.3744 18.7131 14.9938 18.7131ZM19.1902 15.6489H16.018C15.6373 15.6489 15.3289 15.3404 15.3289 14.9598C15.3289 14.5792 15.6374 14.2707 16.018 14.2707H19.1902C19.5708 14.2707 19.8792 14.5792 19.8792 14.9598C19.8792 15.3404 19.5708 15.6489 19.1902 15.6489ZM25.3646 15.6489H22.1924C21.8118 15.6489 21.5034 15.3404 21.5034 14.9598C21.5034 14.5792 21.8119 14.2707 22.1924 14.2707H25.3646C25.7452 14.2707 26.0537 14.5792 26.0537 14.9598C26.0537 15.3404 25.7451 15.6489 25.3646 15.6489ZM28.331 5.58285H20.8492C20.4685 5.58285 20.1601 5.27435 20.1601 4.89379C20.1601 4.51323 20.4686 4.20473 20.8492 4.20473H28.331C28.7116 4.20473 29.0201 4.51323 29.0201 4.89379C29.0201 5.27435 28.7115 5.58285 28.331 5.58285Z" fill="black"/>
</svg>
