<svg width="41" height="40" viewBox="0 0 41 40" fill="none" xmlns="http://www.w3.org/2000/svg">
    <circle cx="20.5002" cy="29.9997" r="6.66667" fill="url(#paint0_linear_221_6444)" fill-opacity="0.25" />
    <g filter="url(#filter0_bi_221_6444)">
        <mask id="path-3-inside-1_221_6444" fill="white">
            <path fill-rule="evenodd" clip-rule="evenodd"
                d="M20.4999 17.5926C23.9772 17.5926 26.7962 14.7736 26.7962 11.2963C26.7962 7.81895 23.9772 5.00001 20.4999 5.00001C17.0225 5.00001 14.2036 7.81895 14.2036 11.2963C14.2036 14.7736 17.0225 17.5926 20.4999 17.5926ZM33.0924 28.6111C33.0924 32.5003 26.0965 33.3333 20.4998 33.3333C14.9031 33.3333 7.90719 32.5003 7.90719 28.6111C7.90719 24.722 13.5451 19.1667 20.4998 19.1667C27.4545 19.1667 33.0924 24.722 33.0924 28.6111Z" />
        </mask>
        <path fill-rule="evenodd" clip-rule="evenodd"
            d="M20.4999 17.5926C23.9772 17.5926 26.7962 14.7736 26.7962 11.2963C26.7962 7.81895 23.9772 5.00001 20.4999 5.00001C17.0225 5.00001 14.2036 7.81895 14.2036 11.2963C14.2036 14.7736 17.0225 17.5926 20.4999 17.5926ZM33.0924 28.6111C33.0924 32.5003 26.0965 33.3333 20.4998 33.3333C14.9031 33.3333 7.90719 32.5003 7.90719 28.6111C7.90719 24.722 13.5451 19.1667 20.4998 19.1667C27.4545 19.1667 33.0924 24.722 33.0924 28.6111Z"
            fill="url(#paint1_linear_221_6444)" />
        <path
            d="M26.4629 11.2963C26.4629 14.5895 23.7932 17.2593 20.4999 17.2593V17.9259C24.1614 17.9259 27.1295 14.9577 27.1295 11.2963H26.4629ZM20.4999 5.33333C23.7932 5.33333 26.4629 8.00304 26.4629 11.2963H27.1295C27.1295 7.63485 24.1614 4.66667 20.4999 4.66667V5.33333ZM14.5369 11.2963C14.5369 8.00304 17.2067 5.33333 20.4999 5.33333V4.66667C16.8385 4.66667 13.8703 7.63485 13.8703 11.2963H14.5369ZM20.4999 17.2593C17.2067 17.2593 14.5369 14.5895 14.5369 11.2963H13.8703C13.8703 14.9577 16.8385 17.9259 20.4999 17.9259V17.2593ZM20.4998 33.6667C23.3071 33.6667 26.4922 33.4585 28.9858 32.7513C30.2318 32.398 31.332 31.9128 32.1264 31.2448C32.9304 30.5687 33.4257 29.6994 33.4257 28.6111H32.7591C32.7591 29.4674 32.3799 30.1606 31.6973 30.7346C31.0051 31.3166 30.0065 31.7689 28.8039 32.11C26.4004 32.7916 23.2892 33 20.4998 33V33.6667ZM7.57389 28.6111C7.57389 29.6994 8.0692 30.5687 8.87326 31.2448C9.66767 31.9128 10.7679 32.398 12.0138 32.7513C14.5074 33.4585 17.6925 33.6667 20.4998 33.6667V33C17.7104 33 14.5992 32.7916 12.1957 32.11C10.9931 31.7689 9.99452 31.3166 9.30231 30.7346C8.61973 30.1606 8.24056 29.4674 8.24056 28.6111H7.57389ZM20.4998 18.8333C16.9342 18.8333 13.7131 20.2565 11.3837 22.1731C9.06845 24.078 7.57389 26.5242 7.57389 28.6111H8.24056C8.24056 26.8089 9.56495 24.5328 11.8073 22.6879C14.0356 20.8545 17.1108 19.5 20.4998 19.5V18.8333ZM33.4257 28.6111C33.4257 26.5242 31.9312 24.078 29.6159 22.1731C27.2865 20.2565 24.0655 18.8333 20.4998 18.8333V19.5C23.8889 19.5 26.9641 20.8545 29.1923 22.6879C31.4347 24.5328 32.7591 26.8089 32.7591 28.6111H33.4257Z"
            fill="url(#paint2_linear_221_6444)" fill-opacity="0.1" mask="url(#path-3-inside-1_221_6444)" />
    </g>
    <defs>
        <filter id="filter0_bi_221_6444" x="2.90723" y="0" width="35.1851" height="38.333" filterUnits="userSpaceOnUse"
            color-interpolation-filters="sRGB">
            <feFlood flood-opacity="0" result="BackgroundImageFix" />
            <feGaussianBlur in="BackgroundImageFix" stdDeviation="2.5" />
            <feComposite in2="SourceAlpha" operator="in" result="effect1_backgroundBlur_221_6444" />
            <feBlend mode="normal" in="SourceGraphic" in2="effect1_backgroundBlur_221_6444" result="shape" />
            <feColorMatrix in="SourceAlpha" type="matrix" values="0 0 0 0 0 0 0 0 0 0 0 0 0 0 0 0 0 0 127 0"
                result="hardAlpha" />
            <feOffset dy="0.833333" />
            <feGaussianBlur stdDeviation="1.66667" />
            <feComposite in2="hardAlpha" operator="arithmetic" k2="-1" k3="1" />
            <feColorMatrix type="matrix" values="0 0 0 0 1 0 0 0 0 1 0 0 0 0 1 0 0 0 0.4 0" />
            <feBlend mode="normal" in2="shape" result="effect2_innerShadow_221_6444" />
        </filter>
        <linearGradient id="paint0_linear_221_6444" x1="25.5495" y1="34.8482" x2="15.3803" y2="34.8583"
            gradientUnits="userSpaceOnUse">
            <stop stop-color="#5636C9" />
            <stop offset="1" stop-color="#2B2591" />
        </linearGradient>
        <linearGradient id="paint1_linear_221_6444" x1="30.0374" y1="29.4697" x2="10.829" y2="29.4868"
            gradientUnits="userSpaceOnUse">
            <stop stop-color="#5636C9" />
            <stop offset="0.5" stop-color="#4E3BBB" />
            <stop offset="1" stop-color="#26208C" />
        </linearGradient>
        <linearGradient id="paint2_linear_221_6444" x1="8.69426" y1="6.28788" x2="33.0924" y2="6.28788"
            gradientUnits="userSpaceOnUse">
            <stop stop-color="#7EE5FF" />
            <stop offset="1" stop-color="#41A9FF" />
        </linearGradient>
    </defs>
</svg>