<svg width="41" height="41" viewBox="0 0 41 41" fill="none" xmlns="http://www.w3.org/2000/svg">
<circle cx="14.4404" cy="24.4396" r="7.5" transform="rotate(45 14.4404 24.4396)" fill="url(#paint0_linear_221_3475)" fill-opacity="0.25"/>
<g filter="url(#filter0_bi_221_3475)">
<path d="M30.3724 8.57739L27.5707 8.17715C22.8805 7.50711 18.1188 7.50711 13.4286 8.17714L10.6269 8.57739C9.59758 8.72443 8.83301 9.606 8.83301 10.6458V16.2243C8.83301 24.0216 13.011 31.2211 19.781 35.0897C20.2263 35.3441 20.773 35.3441 21.2184 35.0897C27.9883 31.2211 32.1663 24.0216 32.1663 16.2243V10.6458C32.1663 9.60599 31.4018 8.72443 30.3724 8.57739Z" fill="url(#paint1_linear_221_3475)"/>
<path d="M27.5472 8.34214L30.3489 8.74238C31.2961 8.8777 31.9997 9.68894 31.9997 10.6458V16.2243C31.9997 23.9618 27.8537 31.1061 21.1357 34.9449C20.7416 35.1701 20.2578 35.1701 19.8637 34.9449C13.1457 31.1061 8.99967 23.9618 8.99967 16.2243V10.6458C8.99967 9.68894 9.70326 8.8777 10.6505 8.74238L13.4522 8.34214C18.1268 7.67434 22.8726 7.67434 27.5472 8.34214Z" stroke="url(#paint2_linear_221_3475)" stroke-opacity="0.1" stroke-width="0.333333"/>
</g>
<g filter="url(#filter1_i_221_3475)">
<path d="M26.7064 18.1652C27.3197 17.5555 27.3197 16.567 26.7064 15.9573C26.0931 15.3476 25.0987 15.3476 24.4854 15.9573L18.6781 21.7304L16.514 19.579C15.9007 18.9693 14.9063 18.9693 14.293 19.579C13.6797 20.1887 13.6797 21.1772 14.293 21.7869L17.5356 25.0104C17.546 25.0213 17.5565 25.032 17.5672 25.0427C17.8403 25.3142 18.1889 25.4648 18.5459 25.4945C18.5581 25.4955 18.5703 25.4964 18.5825 25.4971C19.0158 25.5234 19.458 25.3719 19.7891 25.0427C19.8006 25.0313 19.8119 25.0197 19.823 25.008L26.7064 18.1652Z" fill="white" fill-opacity="0.16"/>
</g>
<defs>
<filter id="filter0_bi_221_3475" x="3.83301" y="2.6748" width="33.333" height="37.6055" filterUnits="userSpaceOnUse" color-interpolation-filters="sRGB">
<feFlood flood-opacity="0" result="BackgroundImageFix"/>
<feGaussianBlur in="BackgroundImageFix" stdDeviation="2.5"/>
<feComposite in2="SourceAlpha" operator="in" result="effect1_backgroundBlur_221_3475"/>
<feBlend mode="normal" in="SourceGraphic" in2="effect1_backgroundBlur_221_3475" result="shape"/>
<feColorMatrix in="SourceAlpha" type="matrix" values="0 0 0 0 0 0 0 0 0 0 0 0 0 0 0 0 0 0 127 0" result="hardAlpha"/>
<feOffset dy="0.833333"/>
<feGaussianBlur stdDeviation="1.66667"/>
<feComposite in2="hardAlpha" operator="arithmetic" k2="-1" k3="1"/>
<feColorMatrix type="matrix" values="0 0 0 0 1 0 0 0 0 1 0 0 0 0 1 0 0 0 0.4 0"/>
<feBlend mode="normal" in2="shape" result="effect2_innerShadow_221_3475"/>
</filter>
<filter id="filter1_i_221_3475" x="13.833" y="15.5" width="13.333" height="10.8333" filterUnits="userSpaceOnUse" color-interpolation-filters="sRGB">
<feFlood flood-opacity="0" result="BackgroundImageFix"/>
<feBlend mode="normal" in="SourceGraphic" in2="BackgroundImageFix" result="shape"/>
<feColorMatrix in="SourceAlpha" type="matrix" values="0 0 0 0 0 0 0 0 0 0 0 0 0 0 0 0 0 0 127 0" result="hardAlpha"/>
<feOffset dy="0.833333"/>
<feGaussianBlur stdDeviation="0.416667"/>
<feComposite in2="hardAlpha" operator="arithmetic" k2="-1" k3="1"/>
<feColorMatrix type="matrix" values="0 0 0 0 1 0 0 0 0 1 0 0 0 0 1 0 0 0 0.4 0"/>
<feBlend mode="normal" in2="shape" result="effect1_innerShadow_221_3475"/>
</filter>
<linearGradient id="paint0_linear_221_3475" x1="20.1209" y1="29.8942" x2="8.68061" y2="29.9056" gradientUnits="userSpaceOnUse">
<stop stop-color="#5636C9"/>
<stop offset="1" stop-color="#2B2591"/>
</linearGradient>
<linearGradient id="paint1_linear_221_3475" x1="29.336" y1="31.6367" x2="11.5399" y2="31.6514" gradientUnits="userSpaceOnUse">
<stop stop-color="#5636C9"/>
<stop offset="0.5" stop-color="#4E3BBB"/>
<stop offset="1" stop-color="#26208C"/>
</linearGradient>
<linearGradient id="paint2_linear_221_3475" x1="9.56217" y1="8.45487" x2="32.1663" y2="8.45487" gradientUnits="userSpaceOnUse">
<stop stop-color="#7EE5FF"/>
<stop offset="1" stop-color="#41A9FF"/>
</linearGradient>
</defs>
</svg>
